<svg width="120" height="100" viewBox="0 0 120 100" fill="none" xmlns="http://www.w3.org/2000/svg">
<g id="AnimatedTriangles">
<g id="dark">
<path id="dark2" d="M69.0001 48.2679C70.3334 49.0377 70.3334 50.9623 69.0001 51.7321L37.5001 69.9186C36.1667 70.6884 34.5001 69.7261 34.5001 68.1865L34.5001 31.8135C34.5001 30.2739 36.1667 29.3116 37.5001 30.0814L69.0001 48.2679Z" fill="#8970D1" fill-opacity="0.6"/>
<path id="dark1" d="M111 48.2679C112.333 49.0377 112.333 50.9623 111 51.7321L79.5 69.9186C78.1667 70.6884 76.5 69.7261 76.5 68.1865L76.5 31.8135C76.5 30.2739 78.1667 29.3116 79.5 30.0814L111 48.2679Z" fill="#8970D1" fill-opacity="0.6"/>
</g>
<g id="light">
<path id="light1" d="M50 48.2679C51.3333 49.0377 51.3333 50.9623 50 51.7321L18.5 69.9186C17.1667 70.6884 15.5 69.7261 15.5 68.1865L15.5 31.8135C15.5 30.2739 17.1667 29.3116 18.5 30.0814L50 48.2679Z" fill="#54D8E0" fill-opacity="0.6"/>
</g>
</svg>
